<?xml version="1.0" encoding="utf-8"?>
<!-- Generator: Adobe Illustrator 19.2.1, SVG Export Plug-In . SVG Version: 6.00 Build 0)  -->
<svg version="1.1" id="Layer_1" xmlns="http://www.w3.org/2000/svg" xmlns:xlink="http://www.w3.org/1999/xlink" x="0px" y="0px"
   width="34px" height="34px" viewBox="0 0 34 34" style="enable-background:new 0 0 34 34;" xml:space="preserve">
<style type="text/css">
  .st0{fill-rule:evenodd;clip-rule:evenodd;fill:#0071c5;}
</style>
<path class="st0" d="M3.4,17C3.4,9.5,9.5,3.4,17,3.4c7.5,0,13.6,6.1,13.6,13.6c0,7.5-6.1,13.6-13.6,13.6C9.5,30.6,3.4,24.5,3.4,17
   M0.4,17c0,9.2,7.4,16.6,16.6,16.6c9.2,0,16.6-7.4,16.6-16.6c0-9.2-7.4-16.6-16.6-16.6C7.8,0.4,0.4,7.8,0.4,17 M15,20.4h3.2
  c-0.1-0.7,0-1,0.2-1.5c0.2-0.5,0.5-1,0.8-1.5c0.3-0.5,0.7-0.9,1.1-1.3c0.4-0.4,0.8-0.9,1.2-1.3c0.4-0.5,0.7-1,0.9-1.5
  c0.2-0.5,0.4-1.1,0.4-1.8c0-0.8-0.1-1.6-0.4-2.2c-0.3-0.6-0.7-1.2-1.2-1.6c-0.5-0.4-1.2-0.8-1.9-1c-0.7-0.2-1.5-0.3-2.3-0.3
  c-1.2,0-2.2,0.3-3.1,0.8c-0.9,0.5-1.7,1.1-2.4,1.9l2,1.8c0.5-0.5,1-0.9,1.5-1.2c0.5-0.3,1.1-0.4,1.8-0.4c0.8,0,1.4,0.2,1.9,0.7
  c0.5,0.5,0.7,1,0.7,1.8c0,0.5-0.1,0.9-0.3,1.3c-0.2,0.4-0.5,0.8-0.9,1.2c-0.3,0.4-0.7,0.8-1.1,1.3c-0.4,0.4-0.7,0.9-1,1.4
  c-0.3,0.5-0.5,1.1-0.7,1.7C14.9,19.3,14.9,19.7,15,20.4 M14.2,25.1c0,0.7,0.2,1.3,0.7,1.7c0.4,0.4,1,0.7,1.7,0.7
  c0.7,0,1.2-0.2,1.7-0.7c0.5-0.5,0.7-1,0.7-1.7c0-0.7-0.2-1.3-0.7-1.7c-0.4-0.5-1-0.7-1.7-0.7c-0.7,0-1.2,0.2-1.7,0.7
  C14.4,23.8,14.2,24.4,14.2,25.1"/>
</svg>
