<?xml version="1.0" encoding="utf-8"?>
<!-- Generator: Adobe Illustrator 19.2.1, SVG Export Plug-In . SVG Version: 6.00 Build 0)  -->
<svg version="1.1" id="Layer_1" xmlns="http://www.w3.org/2000/svg" xmlns:xlink="http://www.w3.org/1999/xlink" x="0px" y="0px"
	 width="34px" height="34px" viewBox="0 0 34 34" style="enable-background:new 0 0 34 34;" xml:space="preserve">
<style type="text/css">
	.st0{fill:#0071c5;}
</style>
<g>
	<path class="st0" d="M26.8,7.2c5.4,5.4,5.4,14.2,0,19.6c-2.6,2.6-6.1,4.1-9.8,4.1c-3.7,0-7.2-1.4-9.8-4.1c-5.4-5.4-5.4-14.2,0-19.6
		c2.6-2.6,6.1-4.1,9.8-4.1C20.7,3.1,24.2,4.6,26.8,7.2 M28.8,28.8c6.5-6.5,6.5-17,0-23.5C25.6,2.1,21.4,0.4,17,0.4
		c-4.4,0-8.6,1.7-11.8,4.9c-6.5,6.5-6.5,17,0,23.5c3.1,3.1,7.3,4.9,11.8,4.9C21.4,33.6,25.6,31.9,28.8,28.8"/>
	<path class="st0" d="M14.7,17l6.7-6.7c0.7-0.7,0.7-1.9,0-2.7c-0.7-0.7-1.9-0.7-2.7,0l-8.1,8c-0.7,0.7-0.7,1.9,0,2.7l8.1,8
		c0.7,0.7,1.9,0.7,2.7,0c0.7-0.7,0.7-1.9,0-2.7L14.7,17z"/>
</g>
</svg>
