<?xml version="1.0" encoding="utf-8"?>
<!-- Generator: Adobe Illustrator 19.2.1, SVG Export Plug-In . SVG Version: 6.00 Build 0)  -->
<svg version="1.1" id="Layer_1" xmlns="http://www.w3.org/2000/svg" xmlns:xlink="http://www.w3.org/1999/xlink" x="0px" y="0px"
	 width="34px" height="34px" viewBox="0 0 34 34" style="enable-background:new 0 0 34 34;" xml:space="preserve">
<style type="text/css">
	.st0{fill:#ffffff;}
</style>
<path class="st0" d="M26.8,7.2c5.4,5.4,5.4,14.2,0,19.6c-2.6,2.6-6.1,4.1-9.8,4.1s-7.2-1.4-9.8-4.1c-5.4-5.4-5.4-14.2,0-19.6
	c2.6-2.6,6.1-4.1,9.8-4.1C20.7,3.1,24.2,4.6,26.8,7.2z M28.8,28.8c6.5-6.5,6.5-17,0-23.5C25.6,2.1,21.4,0.4,17,0.4S8.4,2.1,5.2,5.2
	c-6.5,6.5-6.5,17,0,23.5c3.1,3.1,7.3,4.9,11.8,4.9S25.6,31.9,28.8,28.8z M25.3,17c0,2.2-0.9,4.3-2.4,5.9c-1.6,1.6-3.7,2.4-5.9,2.4
	s-4.3-0.9-5.9-2.4c-1-1-1.8-2.3-2.1-3.7l2.9,0c0.3,0.6,0.7,1.2,1.2,1.7c2.1,2.1,5.7,2.1,7.8,0c1-1,1.6-2.4,1.6-3.9
	c0-1.5-0.6-2.9-1.6-3.9s-2.4-1.6-3.9-1.6s-2.9,0.6-3.9,1.6c-0.2,0.2-0.3,0.4-0.5,0.6h1.9v2.8H7.8V9.7h2.8v2l0.6-0.6l0,0
	c1.6-1.6,3.7-2.4,5.9-2.4c2.2,0,4.3,0.9,5.9,2.4C24.4,12.7,25.3,14.8,25.3,17z"/>
</svg>
