<?xml version="1.0" encoding="utf-8"?>
<!-- Generator: Adobe Illustrator 19.2.0, SVG Export Plug-In . SVG Version: 6.00 Build 0)  -->
<svg version="1.1" id="Layer_1" xmlns="http://www.w3.org/2000/svg" xmlns:xlink="http://www.w3.org/1999/xlink" x="0px" y="0px"
   viewBox="0 0 43.7 43" style="enable-background:new 0 0 43.7 43;" xml:space="preserve">
<style type="text/css">
  .st0{fill-rule:evenodd;clip-rule:evenodd;fill:#e5e5e5;}
  .st1{fill:#e5e5e5;}
  .st2{fill:#e5e5e5;}
  .st3{fill:none;stroke:#e5e5e5;stroke-width:0.4727;stroke-miterlimit:10;}
  .st4{fill:none;stroke:#e5e5e5;stroke-width:0.4675;stroke-miterlimit:10;}
  .st5{fill:none;stroke:#e5e5e5;stroke-width:0.4473;stroke-miterlimit:10;}
  .st6{fill:#FFFFFF;}
</style>
<g>
  <path class="st0" d="M5.6,21.5c0-9,7.3-16.3,16.3-16.3c9,0,16.3,7.3,16.3,16.3s-7.3,16.3-16.3,16.3S5.6,30.5,5.6,21.5z M1.9,21.5
    c0,11,9,20,20,20s20-9,20-20s-9-20-20-20S1.9,10.4,1.9,21.5z"/>
  <g>
    <polygon class="st1" points="23.6,24.8 21.2,24.8 21.2,31.5 17.9,31.5 22.4,37.3 26.9,31.5 23.6,31.5    "/>
    <path class="st1" d="M28.7,11.8c-0.7-1.7-2.5-2.8-4.4-2.6C23.1,8,21.6,7.3,20,7.3c-2.8,0-5.2,2-5.8,4.7c-2.4,0.7-4.2,3-4.2,5.6
      c0,3.2,2.6,5.8,5.8,5.8H28c3.2,0,5.8-2.6,5.8-5.8C33.8,14.6,31.6,12.1,28.7,11.8z M28,20.9H15.9c-1.9,0-3.4-1.5-3.4-3.4
      c0-1.7,1.3-3.1,3-3.3l1-0.1l0-1c0.1-1.9,1.6-3.3,3.4-3.3c1.1,0,2.2,0.5,2.8,1.5l0.5,0.8l0.9-0.3c0.2-0.1,0.4-0.1,0.6-0.1
      c0.9,0,1.6,0.7,1.8,1.5l0.1,1.1H28c1.9,0,3.4,1.5,3.4,3.4S29.9,20.9,28,20.9z"/>
  </g>
</g>
</svg>
