<?xml version="1.0" encoding="utf-8"?>
<!-- Generator: Adobe Illustrator 19.2.1, SVG Export Plug-In . SVG Version: 6.00 Build 0)  -->
<svg version="1.1" id="Layer_1" xmlns="http://www.w3.org/2000/svg" xmlns:xlink="http://www.w3.org/1999/xlink" x="0px" y="0px"
   width="34px" height="34px" viewBox="0 0 34 34" style="enable-background:new 0 0 34 34;" xml:space="preserve">
<style type="text/css">
  .st0{fill:#0071c5;}
</style>
<g>
  <polygon class="st0" points="23.1,17 23.2,17 15.7,9.6 13.5,11.8 17.1,15.4 0,15.4 0,18.6 17.1,18.6 13.5,22.2 15.7,24.4 23.2,17   
    "/>
  <path class="st0" d="M34,17c0-4.4-1.7-8.6-4.9-11.8c-1.4-1.4-2.9-2.4-4.6-3.2c0,0-0.1,0-0.1-0.1c-0.2-0.1-0.3-0.1-0.5-0.2
    c-0.1,0-0.2-0.1-0.3-0.1c-0.1,0-0.2-0.1-0.3-0.1c-0.1-0.1-0.3-0.1-0.4-0.2c-0.1,0-0.1,0-0.2-0.1c-0.2-0.1-0.4-0.1-0.6-0.2
    c0,0-0.1,0-0.1,0c-0.2-0.1-0.4-0.1-0.7-0.2c0,0-0.1,0-0.1,0c-0.2-0.1-0.5-0.1-0.7-0.2c0,0-0.1,0-0.1,0c-0.2,0-0.5-0.1-0.7-0.1
    c-0.1,0-0.1,0-0.2,0c-0.2,0-0.4-0.1-0.6-0.1c-0.1,0-0.3,0-0.4,0c-0.1,0-0.3,0-0.4,0c-0.3,0-0.5,0-0.8,0h0h0c-0.1,0-0.3,0-0.4,0
    C12.8,0.5,8.7,2.1,5.6,5.2C5,5.9,5,6.9,5.6,7.6c0.7,0.7,1.7,0.7,2.3,0c2.6-2.6,6-3.9,9.3-3.9c0,0,0,0,0.1,0c0.9,0,1.8,0.1,2.6,0.3
    c0,0,0,0,0.1,0c0.2,0,0.4,0.1,0.6,0.1c0,0,0.1,0,0.1,0c0.2,0,0.3,0.1,0.5,0.1c0,0,0.1,0,0.1,0c0.2,0.1,0.3,0.1,0.5,0.2
    c0,0,0,0,0.1,0c1.8,0.7,3.5,1.7,4.9,3.1c2.5,2.5,3.9,5.8,3.9,9.4c0,3.6-1.4,6.9-3.9,9.4c-1.4,1.4-3,2.4-4.9,3.1c0,0,0,0-0.1,0
    c-0.2,0.1-0.3,0.1-0.5,0.2c0,0-0.1,0-0.1,0c-0.2,0.1-0.3,0.1-0.5,0.1c0,0-0.1,0-0.1,0c-0.2,0-0.4,0.1-0.6,0.1c0,0,0,0-0.1,0
    c-0.8,0.2-1.7,0.3-2.6,0.3c0,0,0,0-0.1,0c-3.4,0-6.8-1.3-9.3-3.9c-0.6-0.7-1.7-0.7-2.3,0c-0.7,0.7-0.7,1.7,0,2.4
    c3.1,3.1,7.2,4.7,11.3,4.8c0.1,0,0.3,0,0.4,0h0h0c0.3,0,0.5,0,0.8,0c0.1,0,0.3,0,0.4,0c0.1,0,0.3,0,0.4,0c0.2,0,0.4,0,0.6-0.1
    c0.1,0,0.1,0,0.2,0c0.2,0,0.5-0.1,0.7-0.1c0,0,0.1,0,0.1,0c0.2,0,0.5-0.1,0.7-0.2c0,0,0.1,0,0.1,0c0.2-0.1,0.4-0.1,0.7-0.2
    c0,0,0.1,0,0.1,0c0.2-0.1,0.4-0.1,0.6-0.2c0.1,0,0.1,0,0.2-0.1c0.1-0.1,0.3-0.1,0.4-0.2c0.1,0,0.2-0.1,0.3-0.1
    c0.1,0,0.2-0.1,0.3-0.1c0.2-0.1,0.3-0.1,0.5-0.2c0,0,0.1,0,0.1-0.1c1.7-0.8,3.2-1.9,4.6-3.2C32.3,25.6,34,21.4,34,17L34,17L34,17"
    />
</g>
</svg>
